<svg width="27" height="27" viewBox="0 0 27 27" fill="none" xmlns="http://www.w3.org/2000/svg">
<path d="M12.931 22.8981C12.931 22.8981 1.99292 18.6811 1.99292 11.3V10.7735C2.04527 9.47853 2.5021 8.23497 3.29618 7.22572C4.09026 6.21646 5.17968 5.49481 6.4042 5.16692C7.62871 4.83902 8.9237 4.92219 10.0986 5.40419C11.2735 5.8862 12.2663 6.74159 12.931 7.84453" stroke="#333333" stroke-width="1.66782" stroke-linecap="round" stroke-linejoin="round"/>
<path d="M12.9307 22.8981C12.9307 22.8981 23.8688 18.6811 23.8688 11.3V10.7735C23.8164 9.47853 23.3596 8.23497 22.5656 7.22572C21.7715 6.21646 20.682 5.49481 19.4575 5.16692C18.233 4.83902 16.9381 4.92219 15.7631 5.40419C14.5882 5.8862 13.5954 6.74159 12.9307 7.84453" stroke="#333333" stroke-width="1.66782" stroke-linecap="round" stroke-linejoin="round"/>
</svg>
