<svg width="26" height="23" viewBox="0 0 26 23" fill="none" xmlns="http://www.w3.org/2000/svg">
<g clip-path="url(#clip0_505_4795)">
<path d="M11.2921 21.7169C12.4474 21.7169 13.3839 20.7579 13.3839 19.575C13.3839 18.392 12.4474 17.433 11.2921 17.433C10.1369 17.433 9.20032 18.392 9.20032 19.575C9.20032 20.7579 10.1369 21.7169 11.2921 21.7169Z" stroke="#333333" stroke-width="1.66782" stroke-linecap="round" stroke-linejoin="round"/>
<path d="M19.6598 21.7169C20.815 21.7169 21.7515 20.7579 21.7515 19.575C21.7515 18.392 20.815 17.433 19.6598 17.433C18.5045 17.433 17.568 18.392 17.568 19.575C17.568 20.7579 18.5045 21.7169 19.6598 21.7169Z" stroke="#333333" stroke-width="1.66782" stroke-linecap="round" stroke-linejoin="round"/>
<path d="M13.3839 19.576H17.5675" stroke="#333333" stroke-width="1.66782" stroke-linecap="round" stroke-linejoin="round"/>
<path d="M6.06287 3.51135H24.8889L22.7971 14.2212H8.15468" stroke="#333333" stroke-width="1.66782" stroke-linecap="round" stroke-linejoin="round"/>
<path d="M6.06319 3.51095L5.46703 0.833496H1.87964" stroke="#333333" stroke-width="1.66782" stroke-linecap="round" stroke-linejoin="round"/>
<path d="M8.15526 14.2205L7.10938 19.5754H9.20115" stroke="#333333" stroke-width="1.66782" stroke-linecap="round" stroke-linejoin="round"/>
<path d="M0.83374 6.45654H9.20084" stroke="#333333" stroke-width="1.66782" stroke-linecap="round" stroke-linejoin="round"/>
<path d="M2.92542 10.6034H9.20074" stroke="#333333" stroke-width="1.66782" stroke-linecap="round" stroke-linejoin="round"/>
</g>
<defs>
<clipPath id="clip0_505_4795">
<rect width="25.8511" height="22.5155" fill="white"/>
</clipPath>
</defs>
</svg>
