<svg width="149" height="75" viewBox="0 0 149 75" fill="none" xmlns="http://www.w3.org/2000/svg">
<path d="M74.5 -74C33.3558 -74 0 -40.6562 0 0.5C0 41.6294 33.3558 75 74.5 75C115.644 75 149 41.6562 149 0.5C149.027 -40.6562 115.671 -74 74.5 -74ZM74.5 48.9049C47.7509 48.9049 26.0777 27.2395 26.0777 0.5C26.0777 -26.2395 47.7509 -47.9049 74.5 -47.9049C101.249 -47.9049 122.922 -26.2395 122.922 0.5C122.949 27.2395 101.249 48.9049 74.5 48.9049ZM74.5 -23.7159C87.8745 -23.7159 98.7246 -12.8697 98.7246 0.5C98.7246 13.8697 87.8745 24.7159 74.5 24.7159C61.1254 24.7159 50.2754 13.8697 50.2754 0.5C50.3023 -12.8697 61.1254 -23.7159 74.5 -23.7159Z" fill="#BA0000"/>
</svg>
